<?xml version="1.0" standalone="no"?>
<!DOCTYPE svg PUBLIC "-//W3C//DTD SVG 20010904//EN"
 "http://www.w3.org/TR/2001/REC-SVG-20010904/DTD/svg10.dtd">
<svg version="1.0" xmlns="http://www.w3.org/2000/svg"
 width="1024.000000pt" height="1024.000000pt" viewBox="0 0 1024.000000 1024.000000"
 preserveAspectRatio="xMidYMid meet">
<metadata>
Created by potrace 1.14, written by Peter Selinger 2001-2017
</metadata>
<g transform="translate(0.000000,1024.000000) scale(0.100000,-0.100000)"
fill="#000000" stroke="none">
<path d="M0 5120 l0 -5120 5120 0 5120 0 0 5120 0 5120 -5120 0 -5120 0 0
-5120z m2818 1895 c45 -19 1760 -1728 1797 -1790 33 -57 39 -106 21 -168 -15
-50 -54 -91 -903 -939 -625 -625 -899 -892 -925 -903 -50 -20 -114 -19 -165 5
-52 23 -285 247 -308 296 -21 44 -21 130 -1 179 11 26 223 245 705 729 l689
691 -684 690 c-376 380 -693 707 -704 727 -28 53 -27 142 3 196 26 50 254 267
300 287 43 19 129 19 175 0z m5011 -3188 c24 -12 57 -42 75 -66 l31 -43 0
-217 c0 -215 0 -218 -25 -254 -14 -21 -43 -50 -64 -65 l-39 -27 -1402 -3
-1401 -2 -45 23 c-24 13 -57 43 -74 66 l-30 43 0 218 0 218 30 43 c17 23 50
53 74 66 l44 23 1392 0 1392 0 42 -23z"/>
</g>
</svg>
